<svg width="20" height="19" viewBox="0 0 20 19" fill="none" xmlns="http://www.w3.org/2000/svg">
<path d="M10.2224 19C15.3683 19 19.5398 14.8285 19.5398 9.68262C19.5398 4.53677 15.3683 0.365234 10.2224 0.365234C5.07656 0.365234 0.905029 4.53677 0.905029 9.68262C0.910593 14.8262 5.07887 18.9944 10.2224 19H10.2224ZM10.2224 4.24748C10.8656 4.24748 11.3871 4.76892 11.3871 5.41215C11.3871 6.05538 10.8656 6.57682 10.2224 6.57682C9.57918 6.57682 9.05774 6.05538 9.05774 5.41215C9.05774 4.76892 9.57918 4.24748 10.2224 4.24748ZM9.44596 8.12972H10.2224C11.0801 8.12972 11.7753 8.82498 11.7753 9.68262V14.3413C11.7753 14.7701 11.4277 15.1178 10.9989 15.1178C10.57 15.1178 10.2224 14.7701 10.2224 14.3413V9.68262H9.44596C9.01714 9.68262 8.66952 9.33499 8.66952 8.90617C8.66952 8.47735 9.01714 8.12972 9.44596 8.12972Z" fill="white"/>
</svg>
