<svg width="22" height="15" viewBox="0 0 22 15" fill="none" xmlns="http://www.w3.org/2000/svg">
<path d="M7.87028 2.85136H20.6019C21.3293 2.85137 21.9189 2.2887 21.9189 1.59463C21.9189 0.900551 21.3293 0.337891 20.6019 0.337891L7.87028 0.337891C7.14289 0.337891 6.55322 0.900552 6.55322 1.59463C6.55322 2.2887 7.14289 2.85137 7.87028 2.85137V2.85136Z" fill="white"/>
<path d="M20.6019 6.20264H7.87028C7.14289 6.20264 6.55322 6.7653 6.55322 7.45937C6.55322 8.15345 7.14289 8.71611 7.87028 8.71611L20.6019 8.71611C21.3293 8.71611 21.9189 8.15345 21.9189 7.45937C21.9189 6.7653 21.3293 6.20264 20.6019 6.20264V6.20264Z" fill="white"/>
<path d="M20.6019 12.0674H7.87028C7.14289 12.0674 6.55322 12.63 6.55322 13.3241C6.55322 14.0182 7.14289 14.5809 7.87028 14.5809H20.6019C21.3293 14.5809 21.9189 14.0182 21.9189 13.3241C21.9189 12.63 21.3293 12.0674 20.6019 12.0674Z" fill="white"/>
<ellipse cx="2.99859" cy="2" rx="2.096" ry="2" fill="white"/>
<ellipse cx="3.04105" cy="7.04085" rx="2.1951" ry="2.09456" fill="white"/>
<ellipse cx="3.04105" cy="12.9051" rx="2.1951" ry="2.09456" fill="white"/>
</svg>
