<svg width="20" height="22" viewBox="0 0 20 22" fill="none" xmlns="http://www.w3.org/2000/svg">
<path d="M0.79471 15.8132C1.51774 17.0681 3.12118 17.4992 4.37606 16.7762C4.37692 16.7757 4.37774 16.7752 4.3786 16.7747L4.76756 16.55C5.50182 17.1782 6.34581 17.6654 7.25703 17.9871V18.4355C7.25703 19.8838 8.4311 21.0579 9.87938 21.0579C11.3277 21.0579 12.5017 19.8838 12.5017 18.4355V17.9871C13.4131 17.6649 14.2571 17.1772 14.9912 16.5483L15.3819 16.7738C16.6371 17.498 18.2417 17.0675 18.9658 15.8123C19.6899 14.5571 19.2595 12.9525 18.0043 12.2284L17.6162 12.0046C17.7909 11.054 17.7909 10.0795 17.6162 9.12878L18.0043 8.90502C19.2594 8.18088 19.6899 6.57634 18.9658 5.32113C18.2417 4.06597 16.6371 3.63545 15.3819 4.35959L14.9929 4.58425C14.258 3.95682 13.4134 3.47053 12.5017 3.14987V2.70145C12.5017 1.25318 11.3277 0.0791016 9.87938 0.0791016C8.4311 0.0791016 7.25703 1.25318 7.25703 2.70145V3.14987C6.34569 3.47205 5.50166 3.95981 4.76756 4.58868L4.37684 4.3623C3.12163 3.63812 1.51708 4.06863 0.792948 5.3238C0.0688116 6.57896 0.499285 8.18355 1.75449 8.90768L2.1426 9.13144C1.96788 10.0821 1.96788 11.0566 2.1426 12.0073L1.75449 12.2311C0.50277 12.9571 0.0736868 14.5586 0.79471 15.8132ZM9.87938 7.07204C11.8104 7.07204 13.3758 8.63746 13.3758 10.5685C13.3758 12.4995 11.8104 14.0649 9.87938 14.0649C7.94835 14.0649 6.38293 12.4995 6.38293 10.5685C6.38293 8.63746 7.94835 7.07204 9.87938 7.07204Z" fill="white"/>
</svg>
