<svg width="21" height="21" viewBox="0 0 21 21" fill="none" xmlns="http://www.w3.org/2000/svg">
<path d="M6.84766 11.5182C4.72481 11.5182 3.00391 9.79732 3.00391 7.67448C3.00391 5.55163 4.72481 3.83073 6.84766 3.83073C8.9705 3.83073 10.6914 5.55164 10.6914 7.67448C10.6891 9.79635 8.96952 11.5159 6.84766 11.5182L6.84766 11.5182ZM12.3997 20.9141H1.29557C0.82383 20.9141 0.441406 20.5316 0.441406 20.0599V19.6328C0.441406 16.0947 3.30958 13.2266 6.84766 13.2266C10.3857 13.2266 13.2539 16.0947 13.2539 19.6328V20.0599C13.2539 20.5316 12.8715 20.9141 12.3997 20.9141ZM15.3893 8.10156C13.2665 8.10156 11.5456 6.38066 11.5456 4.25781C11.5456 2.13497 13.2665 0.414062 15.3893 0.414062C17.5122 0.414062 19.2331 2.13497 19.2331 4.25781C19.2307 6.37968 17.5112 8.09921 15.3893 8.10156H15.3893ZM14.1756 9.82783C12.5673 10.0436 11.1218 10.9199 10.1866 12.246C12.1007 13.1152 13.6046 14.6908 14.384 16.6432H20.0872C20.559 16.6432 20.9414 16.2608 20.9414 15.7891V15.7566C20.9396 14.0341 20.1959 12.3959 18.9005 11.2607C17.605 10.1256 15.8833 9.60343 14.1756 9.82783Z" fill="#DC9F42"/>
</svg>
